<?xml version="1.0" encoding="UTF-8" standalone="no"?><svg   xmlns:dc="http://purl.org/dc/elements/1.1/"   xmlns:cc="http://creativecommons.org/ns#"   xmlns:rdf="http://www.w3.org/1999/02/22-rdf-syntax-ns#"   xmlns:svg="http://www.w3.org/2000/svg"   xmlns="http://www.w3.org/2000/svg"   viewBox="0 0 813.21252 452.25"   height="452.25"   width="813.21252"   xml:space="preserve"   version="1.1"   id="svg2"><metadata     id="metadata8"><rdf:RDF><cc:Work         rdf:about=""><dc:format>image/svg+xml</dc:format><dc:type           rdf:resource="http://purl.org/dc/dcmitype/StillImage" /></cc:Work></rdf:RDF></metadata><defs     id="defs6" /><g     transform="matrix(1.25,0,0,-1.25,0,452.25)"     id="g10"><g       transform="scale(0.1,0.1)"       id="g12"><path         id="path14"         style="fill:#ff8c00;fill-opacity:1;fill-rule:nonzero;stroke:none"         d="m 3385.97,1022.79 c 32.82,0 48.28,14.99 48.28,37.02 0,23.44 -17.34,37.48 -48.75,37.48 l -48.27,0 0,-74.5 48.74,0 z m -4.21,104.97 c 27.18,0 40.77,14.06 40.77,36.09 0,21.56 -13.59,32.8 -42.18,32.8 l -43.12,0 0,-68.89 44.53,0 z m -89.97,100.28 97.93,0 c 47.79,0 79.2,-21.08 79.2,-60.91 0,-22.96 -12.18,-42.64 -33.73,-52.02 l 0,-0.47 c 29.52,-7.03 44.98,-29.99 44.98,-56.23 0,-44.06 -35.62,-67.48 -87.17,-67.48 l -101.21,0 0,237.11" /><path         id="path16"         style="fill:#ff8c00;fill-opacity:1;fill-rule:nonzero;stroke:none"         d="m 3647,1233.67 c 31.41,0 66.54,-10.78 89.05,-34.68 l -21.56,-31.86 c -15.95,15.93 -40.77,27.17 -65.62,27.17 -47.79,0 -82.46,-36.09 -82.46,-84.35 0,-48.26 34.67,-85.29 83.87,-85.29 26.25,0 54.83,12.65 73.11,31.87 l 18.28,-33.28 c -21.56,-22.96 -57.64,-37.961 -94.67,-37.961 -74.97,0 -127,52.961 -127,124.201 0,70.29 52.5,124.18 127,124.18" /><path         id="path18"         style="fill:#ff8c00;fill-opacity:1;fill-rule:nonzero;stroke:none"         d="m 3907.12,1322.24 37.02,0 0,-47.33 -37.02,0 0,47.33 z m -78.74,0 37.49,0 0,-47.33 -37.49,0 0,47.33 z m 117.15,-186.05 c -1.4,40.78 -26.71,62.33 -57.64,62.33 -35.14,0 -62.79,-22.96 -69.36,-62.33 l 127,0 z m -56.7,97.47 c 67.02,0 102.63,-50.13 102.63,-111.05 0,-6.1 -0.94,-12.66 -1.88,-19.23 l -172.45,0 c 2.34,-51.07 38.89,-78.73 81.54,-78.73 25.3,0 51.08,10.79 69.84,27.66 l 19.2,-33.28 c -22.96,-21.081 -59.05,-33.741 -91.85,-33.741 -74.51,0 -126.06,53.891 -126.06,124.191 0,75.45 51.55,124.18 119.03,124.18" /><path         id="path20"         style="fill:#ff8c00;fill-opacity:1;fill-rule:nonzero;stroke:none"         d="m 4163.46,1228.04 207.14,0 0,-237.13 -45.47,0 0,198.23 -116.21,0 0,-198.23 -45.46,0 0,237.13" /><path         id="path22"         style="fill:#ff8c00;fill-opacity:1;fill-rule:nonzero;stroke:none"         d="m 4551.96,1024.66 c 37.5,0 68.42,30.46 68.42,84.35 0,51.55 -27.64,84.82 -67.01,84.82 -35.61,0 -68.43,-25.31 -68.43,-85.29 0,-42.18 23.44,-83.88 67.02,-83.88 m -111.06,203.38 42.17,0 0,-21.08 c 0,-9.84 -1.41,-17.81 -1.41,-17.81 l 0.94,0 c 15,28.58 45,44.52 79.67,44.52 64.2,0 104.03,-50.61 104.03,-124.19 0,-75.44 -44.98,-124.191 -107.31,-124.191 -29.98,0 -57.17,15.001 -73.58,40.311 l -0.94,0 c 0,0 1.88,-8.44 1.88,-20.62 l 0,-107.789 -45.45,0 0,330.849" /><path         id="path24"         style="fill:#ff8c00;fill-opacity:1;fill-rule:nonzero;stroke:none"         d="m 4835.02,1024.66 c 44.53,0 81.54,35.62 81.54,85.29 0,49.21 -37.01,84.35 -81.54,84.35 -44.98,0 -81.53,-35.14 -81.53,-84.35 0,-49.67 36.55,-85.29 81.53,-85.29 m -0.47,209.01 c 70.77,0 127.94,-52.02 127.94,-123.72 0,-72.17 -57.17,-124.661 -127.47,-124.661 -70.77,0 -127.94,52.491 -127.94,124.661 0,71.7 57.17,123.72 127.47,123.72" /><path         id="path26"         style="fill:#ff8c00;fill-opacity:1;fill-rule:nonzero;stroke:none"         d="m 5007.96,1228.04 43.58,0 0,-197.76 87.62,0 0,197.76 44.06,0 0,-197.76 87.63,0 0,197.76 43.6,0 0,-197.76 33.73,0 0,-95.6 -41.71,0 0,56.23 -298.51,0 0,237.13" /><path         id="path28"         style="fill:#ff8c00;fill-opacity:1;fill-rule:nonzero;stroke:none"         d="m 5553.91,1136.19 c -1.41,40.78 -26.72,62.33 -57.64,62.33 -35.14,0 -62.8,-22.96 -69.36,-62.33 l 127,0 z m -56.7,97.48 c 67.01,0 102.62,-50.14 102.62,-111.06 0,-6.1 -0.94,-12.66 -1.87,-19.23 l -172.46,0 c 2.35,-51.07 38.9,-78.72 81.55,-78.72 25.3,0 51.08,10.78 69.83,27.65 l 19.2,-33.28 c -22.95,-21.081 -59.04,-33.741 -91.84,-33.741 -74.51,0 -126.07,53.891 -126.07,124.191 0,75.45 51.56,124.19 119.04,124.19" /><path         id="path30"         style="fill:#0023a0;fill-opacity:1;fill-rule:nonzero;stroke:none"         d="m 3811.97,1443.63 c -6.57,-5.48 -14.25,-4.37 -19.7,2.2 l -52.57,70.06 c -48.16,64.61 -109.49,105.11 -223.37,105.11 -214.61,0 -349.27,154.38 -349.27,399.65 0,246.36 134.66,400.75 349.27,400.75 214.62,0 348.21,-154.39 348.21,-400.75 0,-124.82 -43.8,-251.82 -117.18,-295.63 -13.13,-7.68 -13.13,-10.95 0,-15.33 63.51,-22.99 93.07,-50.37 127.02,-94.16 l 49.27,-66.78 c 5.47,-6.57 4.38,-14.22 -2.2,-19.72 l -109.48,-85.4 z m -295.64,335.05 c 106.22,0 169.71,91.97 169.71,241.97 0,153.3 -63.49,241.98 -169.71,241.98 -104.01,0 -170.78,-88.68 -170.78,-241.98 0,-150 66.77,-241.97 170.78,-241.97" /><path         id="path32"         style="fill:#0023a0;fill-opacity:1;fill-rule:nonzero;stroke:none"         d="m 4163.48,1647.28 c 0,-8.78 -5.48,-14.24 -14.22,-14.24 l -148.93,0 c -8.75,0 -14.23,5.46 -14.23,14.24 l 0,747.84 c 0,8.75 5.48,14.25 14.23,14.25 l 148.93,0 c 8.74,0 14.22,-5.5 14.22,-14.25 l 0,-747.84" /><path         id="path34"         style="fill:#0023a0;fill-opacity:1;fill-rule:nonzero;stroke:none"         d="m 5177.39,1868.46 c -19.7,-75.55 -36.14,-147.82 -50.36,-222.27 -1.11,-8.76 -6.59,-13.13 -15.34,-13.13 l -200.38,0 c -8.74,0 -14.23,4.37 -15.31,13.13 -12.05,63.49 -24.1,121.53 -39.44,181.77 l -33.92,142.32 c -6.57,28.46 -15.35,74.47 -21.92,112.8 -2.18,15.32 -15.31,15.32 -17.51,0 -6.57,-38.33 -15.32,-83.23 -21.89,-112.8 l -33.95,-142.32 c -14.23,-60.24 -26.28,-118.28 -39.43,-181.77 -1.07,-8.76 -6.57,-13.13 -15.3,-13.13 l -200.38,0 c -8.77,0 -14.25,4.37 -15.34,13.13 -14.24,74.45 -30.65,146.72 -50.36,222.27 l -134.68,525.56 c -3.28,8.77 2.19,15.34 12.05,15.34 l 151.09,0 c 8.77,0 14.25,-4.39 16.43,-12.04 l 74.45,-295.63 c 18.62,-74.46 33.95,-169.72 40.52,-240.89 1.09,-14.23 17.52,-15.34 19.71,0 9.84,70.08 27.38,166.43 48.17,240.89 l 79.93,295.63 c 2.18,7.65 7.66,12.04 15.32,12.04 l 124.83,0 c 7.67,0 13.14,-4.39 15.32,-12.04 l 81.04,-295.63 c 20.79,-74.46 38.32,-170.81 48.18,-240.89 1.09,-15.34 17.53,-14.23 18.61,0 5.48,71.17 21.89,166.43 40.5,240.89 l 74.47,295.63 c 2.18,7.65 7.64,12.04 16.42,12.04 l 151.1,0 c 9.86,0 15.34,-6.57 12.04,-15.34 l -134.67,-525.56" /><path         id="path36"         style="fill:#0023a0;fill-opacity:1;fill-rule:nonzero;stroke:none"         d="m 5597.89,1647.28 c 0,-8.78 -5.47,-14.24 -14.22,-14.24 l -148.93,0 c -8.75,0 -14.23,5.46 -14.23,14.24 l 0,747.84 c 0,8.75 5.48,14.25 14.23,14.25 l 148.93,0 c 8.75,0 14.22,-5.5 14.22,-14.25 l 0,-747.84" /><path         id="path38"         style="fill:#ff8c00;fill-opacity:1;fill-rule:nonzero;stroke:none"         d="m 2271.44,1284.87 c -18.18,0 -33.34,-6.34 -42.67,-17.85 -23.89,-29.45 -13.15,-81.3 23.44,-113.27 15.97,-13.94 38.97,-22.29 61.55,-22.29 22.99,0 42.17,8.63 54.01,24.27 21.29,28.53 9.04,68.97 -31.19,102.99 -19.92,16.85 -43.05,26.15 -65.14,26.15 m 200.54,148 c -17.79,5.2 -31.09,1.33 -37.65,-10.67 -9.94,-18.15 -2.6,-54.06 17.45,-85.35 20.32,-31.7 37.55,-47.77 51.27,-47.77 4.73,0 8.96,1.99 12.25,5.73 7.63,8.76 10.15,27.11 6.94,50.32 -3.22,23.72 -17.78,72.51 -50.26,87.74 m 397.28,-718.979 c 18.39,-22.782 -9.58,-45.911 -30.43,-27.43 -208.19,184.41 -383.29,236.641 -556.47,243.879 -91.91,3.84 -183.27,-4.969 -278.78,-13.41 -19.07,-1.68 -38.31,-3.348 -57.77,-4.891 -8.49,-0.687 -17.04,-1.328 -25.59,-1.957 -33.68,-3.633 -67.8,-5.562 -102.41,-5.562 -162.95,0 -316.71,39.929 -457.07,118.73 -140.86,79.01 -252.81,189.38 -332.72,328.05 -79.774,138.36 -120.204,291.25 -120.204,454.43 0,163.01 40.391,316.55 120.044,456.34 79.81,140 190.48,251.46 328.94,331.26 138.46,79.75 289.49,120.19 448.93,120.19 166.51,0 322.14,-39.95 462.57,-118.75 140.83,-79.02 253.12,-189.72 333.78,-329.07 80.51,-139.18 121.33,-292.47 121.33,-455.61 0,-62.98 -6.11,-124.48 -18.1,-184.29 -1.54,-8.68 -3.77,-19.2 -6.91,-31.46 -2.34,-9.81 -4.84,-19.59 -7.51,-29.31 l -0.75,0.42 c -16.13,-51.64 -46.16,-124.73 -102.05,-218.58 -6.02,-9.87 -9.35,-2.35 -10.13,3.17 -19.56,138.03 -80.05,242.85 -186.67,310.55 -1.75,1.11 -3.55,2.18 -5.33,3.26 -17.47,10.75 -36.13,20.52 -56.04,29.32 -25.41,11.19 -52.82,20.84 -82.3,28.8 -18.08,4.86 -58.38,2.77 -43.76,17.27 6.03,5.97 93.33,7.34 193.68,0.98 1.95,-0.12 3.9,-0.24 5.87,-0.37 1.85,21.04 2.81,42.61 2.81,64.74 0,172.23 -57.01,312.66 -174.3,429.28 -117.38,116.7 -254.62,173.45 -419.59,173.45 -168.93,0 -305.91,-56.81 -418.74,-173.69 -113.44,-117.46 -168.57,-256.71 -168.57,-425.7 0,-168.64 56.69,-307.3 173.32,-423.91 116.63,-116.62 252.04,-173.33 413.99,-173.33 7.77,0 15.44,0.24 23.11,0.48 -0.18,1.96 -0.31,3.92 -0.47,5.85 -9.31,118.9 -11.28,217.68 13.15,177.83 8.63,-14.09 17.22,-27.4 25.78,-40.21 31.94,-47.74 63.54,-87.03 95,-119.61 1.58,-1.63 3.16,-3.22 4.76,-4.82 115.12,-116.85 228.44,-145.6 348.91,-175.16 2.57,-0.65 5.13,-1.28 7.69,-1.9 19.72,-4.86 39.64,-9.78 59.8,-15.17 143.18,-38.21 298.24,-99.808 479.2,-324.089" /></g></g></svg>