<svg xmlns="http://www.w3.org/2000/svg" height="400" width="600" viewBox="0 0 600.01176 400.00454"><g fill="#0074b6" fill-rule="evenodd"><path d="M299.516 2.15c19.51 0 37.913 4.565 54.212 12.58 2.593 1.22 5.185 2.578 7.778 4.076l-11.36 10.105-17.164-17.63-28.897 25.79-17.165-18.75-53.838 48.505 34.577 38.016-13.59 11.85 33.96 38.12-13.46 11.846 48.53 54.08 28.9-26.553 24.943 28.54c-5.064 3.797-10.374 7.386-16.423 10.73-18.03 10.246-38.774 16.17-61.003 16.17-68.168 0-123.736-55.544-123.736-123.702 0-68.12 55.57-123.77 123.74-123.77z"/><path d="M277.04 118.046l29.392-26.412 26.55 29.374-29.515 26.518zm20.86 50.844l29.39-26.412 26.55 29.374-29.39 26.552zM255.917 67.797l29.39-26.412 26.55 29.374-29.39 26.55zM309.88 53.62l22.1-19.896 19.883 22.127-22.1 19.868zm39.275 90.945l22.103-19.862 19.882 22.092-22.106 19.862zm19.39 44.557l22.102-19.863 19.882 22.09-22.11 19.86zm8.895-102.2l14.82-13.206 13.213 14.705-14.694 13.317zm-18.78-43.697l14.698-13.207 13.335 14.705-14.82 13.31zm37.66 87.545l14.697-13.346 13.213 14.704-14.698 13.31zm-66.06-32.873l22.107-19.862 19.882 22.09-22.11 19.863zM55.867 306.913h-.882L38.343 369.8H24.675l-20.39-89.323h14.108l14.108 66.65h.887l16.423-66.65h11.24l17.524 66.65h.88l12.787-66.65h14.77L86.62 369.8H72.95zM162.89 355.93v9.58c-5.623 3.204-13.228 5.723-22.266 5.723-21.273 0-29.98-13.093-29.98-32.936 0-19.158 9.81-33.03 28.657-33.03 15.768 0 25.467 10.233 25.467 30.728v4.634H123.65c0 15.17 6.173 21.8 19.18 21.8 6.833 0 13.115-2.3 20.06-6.5zm-38.91-23.698h28.768c-.55-13.218-7.054-18.505-13.778-18.505-7.715 0-13.667 5.847-14.99 18.505zm65.362-22.372c3.747-1.96 10.25-4.604 17.084-4.604 15.54 0 24.028 10.792 24.028 30.946 0 23.574-11.353 35.02-29.65 35.02-6.613 0-16.974-2.084-24.578-6.158V277.14l13.116-3.17zm-.11 50.57c4.078 1.773 8.487 1.99 11.573 1.99 9.37 0 16.423-5.722 16.423-26.218 0-15.985-5.842-21.148-14.218-21.148-5.07 0-8.708 1.43-13.778 4.168zm98.53-9.58h.662l27.002-70.382h15.652v89.322h-13.67v-64.783h-1.1l-25.683 64.783h-8.155l-25.68-63.322h-1.104v63.322h-11.352v-89.322h15.21zm57.208-12.564c0-22.144 12.014-33.03 28.657-33.03 16.645 0 28.77 10.885 28.77 33.03 0 21.49-11.465 32.936-28.77 32.936-17.194 0-28.657-11.446-28.657-32.936zm44.197 0c0-17.074-6.944-24.228-15.54-24.228-8.267 0-15.43 7.153-15.43 24.228 0 17.2 6.504 24.135 15.43 24.135 9.038 0 15.54-6.93 15.54-24.13zm25.25-23.67c5.62-3.42 17.634-9.36 32.075-9.36 15.207 0 20.83 5.94 20.83 18.94v45.593h-13.117v-42.74c0-9.92-4.85-11.695-11.352-11.695-4.96 0-11.464 2.21-15.32 4.54v49.887h-13.115zM531.25 355.93v9.58c-5.62 3.204-13.225 5.723-22.263 5.723-21.273 0-29.87-13.093-29.87-32.936 0-19.158 9.698-33.03 28.546-33.03 15.762 0 25.462 10.233 25.462 30.728v4.634h-41.112c0 15.17 6.174 21.8 19.18 21.8 6.833 0 13.116-2.3 20.057-6.5zm-38.908-23.698h28.878c-.66-13.218-7.054-18.505-13.887-18.505-7.716 0-13.666 5.847-14.99 18.505zm89.825-24.892h13.56l-22.815 63.01c-6.394 17.418-14 26.562-28.548 26.562v-10.356c8.596 0 13.887-6.843 16.863-16.204l-24.138-63.01h13.88l16.09 46.37h.774z"/></g></svg>